# xmcd CD Database Entry
#
# Track frame offsets:
# 150
# 20370
# 46395
# 73157
# 109108
# 132422
# 156771
# 173040
# 199706
# 220597
# 236533
# 252212
# 280125
#
# Disc length: 4351 seconds
#
# Revision: 1
# Processed by: cddbd v1.5PL3 Copyright (c) Steve Scherf et al.
# Submitted via: tcd 2.0b
#
DISCID=b410fd0d
DTITLE=Deep Purple - The Best
DYEAR=1900
DGENRE=
TTITLE0=Hush
TTITLE1=Smoke On The Water
TTITLE2=Speed King 
TTITLE3=Flight Of The Rat
TTITLE4=Pictures Of Home
TTITLE5=Demon's Eye
TTITLE6=When A Blind Man Cries
TTITLE7=Woman From Tokyo
TTITLE8=Space In' 
TTITLE9=Black Night
TTITLE10=Fireball 
TTITLE11=Highway Star
TTITLE12=Child In Time
EXTD=
EXTT0=
EXTT1=
EXTT2=
EXTT3=
EXTT4=
EXTT5=
EXTT6=
EXTT7=
EXTT8=
EXTT9=
EXTT10=
EXTT11=
EXTT12=
PLAYORDER=
